<svg xmlns="http://www.w3.org/2000/svg" xmlns:xlink="http://www.w3.org/1999/xlink" width="256" zoomAndPan="magnify" viewBox="0 0 192 191.999996" height="256" preserveAspectRatio="xMidYMid meet" version="1.0"><defs><clipPath id="0d0258f46e"><path d="M 7.496094 6.089844 L 179.996094 6.089844 L 179.996094 178.589844 L 7.496094 178.589844 Z M 7.496094 6.089844 " clip-rule="nonzero"/></clipPath><clipPath id="9a38d9e719"><path d="M 0 0 L 189.75 0 L 189.75 191 L 0 191 Z M 0 0 " clip-rule="nonzero"/></clipPath></defs><g clip-path="url(#0d0258f46e)"><path fill="#f5d435" d="M 169.648438 165.351562 L 141.449219 165.351562 L 141.449219 121.191406 C 141.449219 110.660156 141.257812 97.105469 126.78125 97.105469 C 112.304688 97.105469 109.847656 108.582031 109.847656 120.429688 L 109.847656 165.351562 L 81.644531 165.351562 L 81.644531 74.539062 L 108.714844 74.539062 L 108.714844 86.953125 L 109.09375 86.953125 C 114.609375 77.515625 124.878906 71.875 135.804688 72.285156 C 164.382812 72.285156 169.660156 91.089844 169.660156 115.542969 L 169.660156 165.363281 Z M 49.835938 62.125 C 40.792969 62.125 33.472656 54.804688 33.464844 45.761719 C 33.457031 36.71875 40.785156 29.398438 49.828125 29.390625 C 58.867188 29.390625 66.1875 36.710938 66.195312 45.753906 C 66.207031 54.792969 58.878906 62.113281 49.835938 62.125 M 63.9375 165.351562 L 35.707031 165.351562 L 35.707031 74.539062 L 63.9375 74.539062 Z M 183.707031 3.207031 L 21.542969 3.207031 C 13.875 3.125 7.585938 9.261719 7.496094 16.929688 L 7.496094 179.777344 C 7.585938 187.445312 13.875 193.589844 21.542969 193.511719 L 183.714844 193.511719 C 191.402344 193.609375 197.710938 187.464844 197.816406 179.777344 L 197.816406 16.914062 C 197.699219 9.234375 191.394531 3.097656 183.707031 3.199219 " fill-opacity="1" fill-rule="nonzero"/></g><g clip-path="url(#9a38d9e719)"><path fill="#000000" d="M 162.042969 162.351562 L 133.863281 162.351562 L 133.863281 118.191406 C 133.863281 107.660156 133.671875 94.105469 119.207031 94.105469 C 104.738281 94.105469 102.28125 105.582031 102.28125 117.429688 L 102.28125 162.351562 L 74.097656 162.351562 L 74.097656 71.539062 L 101.152344 71.539062 L 101.152344 83.953125 L 101.527344 83.953125 C 107.039062 74.515625 117.304688 68.875 128.222656 69.285156 C 156.78125 69.285156 162.054688 88.089844 162.054688 112.542969 L 162.054688 162.363281 Z M 42.3125 59.125 C 33.273438 59.125 25.960938 51.804688 25.953125 42.761719 C 25.941406 33.71875 33.265625 26.398438 42.300781 26.390625 C 51.335938 26.390625 58.652344 33.710938 58.660156 42.753906 C 58.671875 51.792969 51.347656 59.113281 42.3125 59.125 M 56.402344 162.351562 L 28.191406 162.351562 L 28.191406 71.539062 L 56.402344 71.539062 Z M 176.089844 0.207031 L 14.039062 0.207031 C 6.375 0.125 0.0898438 6.261719 0 13.929688 L 0 176.777344 C 0.0898438 184.445312 6.375 190.589844 14.039062 190.511719 L 176.101562 190.511719 C 183.78125 190.609375 190.085938 184.464844 190.191406 176.777344 L 190.191406 13.914062 C 190.074219 6.234375 183.773438 0.0976562 176.089844 0.199219 " fill-opacity="1" fill-rule="nonzero"/></g></svg>